<svg width="120" height="60" viewBox="0 0 120 60" fill="none" xmlns="http://www.w3.org/2000/svg">
<path d="M106.784 25.3315C106.513 25.3315 106.249 25.3876 106.016 25.5196L98.6298 29.7848C98.1518 30.0601 97.8613 30.5803 97.8613 31.1335V39.6486C97.8613 40.2016 98.1518 40.7209 98.6298 40.9971L100.559 42.1086C101.496 42.5706 101.841 42.5632 102.268 42.5632C103.655 42.5632 104.447 41.7213 104.447 40.258V31.8573C104.447 31.7385 104.345 31.6535 104.228 31.6535H103.303C103.184 31.6535 103.083 31.7407 103.083 31.8573V40.2624C103.083 40.911 102.408 41.5635 101.311 41.0152L99.3063 39.8391C99.2354 39.8005 99.1807 39.7301 99.1807 39.651V31.1359C99.1807 31.0552 99.2348 30.9729 99.3063 30.9321L106.677 26.6822C106.746 26.6425 106.828 26.6425 106.896 26.6822L114.266 30.9321C114.336 30.9742 114.392 31.0526 114.392 31.1359V39.651C114.392 39.7323 114.351 39.8156 114.282 39.8548L106.896 44.1048C106.831 44.1425 106.744 44.1425 106.677 44.1048L104.779 42.9758C104.723 42.9427 104.646 42.9453 104.591 42.9758C104.068 43.2726 103.969 43.3071 103.478 43.4775C103.357 43.5196 103.173 43.5852 103.541 43.7913L106.018 45.2516C106.254 45.388 106.517 45.4554 106.787 45.4554C107.06 45.4554 107.319 45.39 107.555 45.2516L114.941 41.0016C115.419 40.7235 115.71 40.2061 115.71 39.6532V31.1381C115.71 30.5849 115.419 30.0658 114.941 29.7894L107.555 25.5242C107.324 25.3921 107.058 25.3361 106.787 25.3361L106.784 25.3315ZM108.76 31.4162C106.657 31.4162 105.404 32.3113 105.404 33.7996C105.404 35.4124 106.647 35.8579 108.666 36.0575C111.081 36.294 111.269 36.6486 111.269 37.1239C111.269 37.9484 110.612 38.3 109.058 38.3C107.106 38.3 106.677 37.8127 106.533 36.8397C106.516 36.7356 106.436 36.6517 106.33 36.6517H105.371C105.313 36.6529 105.258 36.6765 105.217 36.7174C105.176 36.7582 105.152 36.8133 105.151 36.8711C105.151 38.1141 105.827 39.5839 109.056 39.5839C111.393 39.5839 112.741 38.6685 112.741 37.0592C112.741 35.4682 111.652 35.0382 109.385 34.7381C107.097 34.433 106.876 34.2869 106.876 33.7501C106.876 33.3073 107.061 32.7149 108.758 32.7149C110.273 32.7149 110.833 33.0418 111.063 34.0635C111.083 34.1594 111.168 34.2379 111.267 34.2379H112.226C112.285 34.2379 112.342 34.2017 112.383 34.1594C112.423 34.1143 112.451 34.0635 112.446 34.0025C112.297 32.2428 111.124 31.4151 108.761 31.4151L108.76 31.4162Z" fill="#83CD29"/>
<path d="M63.3626 14.169C63.2801 14.1692 63.1991 14.1908 63.1274 14.2318C63.0562 14.2735 62.9971 14.333 62.9558 14.4045C62.9146 14.476 62.8927 14.557 62.8923 14.6396V26.6357C62.8923 26.7534 62.8374 26.8589 62.7354 26.918C62.6854 26.9471 62.6286 26.9625 62.5707 26.9625C62.5128 26.9625 62.456 26.9471 62.406 26.918L60.4458 25.789C60.3029 25.7063 60.1406 25.6627 59.9754 25.6627C59.8102 25.6627 59.648 25.7063 59.505 25.789L51.6803 30.3051C51.3878 30.4738 51.2095 30.7985 51.2095 31.1361V40.1684C51.2093 40.3337 51.2527 40.4962 51.3353 40.6393C51.4179 40.7825 51.5368 40.9013 51.6801 40.9838L59.505 45.5001C59.6479 45.583 59.8102 45.6267 59.9754 45.6267C60.1406 45.6267 60.3029 45.583 60.4458 45.5001L68.2708 40.9838C68.414 40.9013 68.5329 40.7825 68.6155 40.6393C68.6982 40.4962 68.7415 40.3337 68.7413 40.1684V17.6503C68.7413 17.3077 68.5543 16.9862 68.2553 16.8192L63.598 14.2159C63.5248 14.1751 63.4437 14.1679 63.3626 14.1688V14.169ZM13.0258 25.4438C12.8765 25.4499 12.7364 25.4758 12.6023 25.5536L4.77764 30.0697C4.6343 30.152 4.51529 30.2708 4.43269 30.414C4.35009 30.5572 4.30684 30.7197 4.30732 30.885L4.32323 43.007C4.32323 43.1757 4.4104 43.3322 4.55861 43.4145C4.70398 43.5017 4.88422 43.5017 5.02894 43.4145L9.67053 40.7486C9.96476 40.5743 10.1566 40.27 10.1566 39.9335V34.2724C10.1566 33.9345 10.3342 33.6251 10.6273 33.4572L12.6032 32.3126C12.746 32.2296 12.9084 32.1862 13.0735 32.187C13.2388 32.1861 13.4013 32.2294 13.5441 32.3126L15.5191 33.4566C15.8118 33.6244 15.9894 33.9343 15.9894 34.2717V39.9326C15.9894 40.2696 16.1856 40.5756 16.4755 40.7477L21.1171 43.4137C21.2631 43.5008 21.4429 43.5008 21.5874 43.4137C21.7312 43.3308 21.8228 43.1746 21.8228 43.0061L21.8385 30.8846C21.8394 30.7192 21.7963 30.5565 21.7137 30.4133C21.631 30.27 21.5118 30.1513 21.3681 30.0693L13.5434 25.5534C13.4111 25.4758 13.2703 25.4497 13.12 25.4436H13.0262L13.0258 25.4438ZM83.3404 25.5536C83.1752 25.5532 83.0129 25.5965 82.8699 25.6792L75.045 30.1955C74.7529 30.3644 74.5742 30.6732 74.5742 31.0106V40.0429C74.5742 40.3825 74.7655 40.6902 75.0602 40.858L82.8224 45.2823C83.109 45.4458 83.4588 45.4582 83.7475 45.2976L88.4519 42.6787C88.6012 42.5959 88.7021 42.4412 88.7025 42.2712C88.703 42.1012 88.6147 41.9482 88.4672 41.8636L80.5949 37.3474C80.4476 37.2632 80.3443 37.093 80.3443 36.9239V34.0995C80.3443 33.9308 80.4489 33.7761 80.5949 33.692L83.0412 32.2805C83.1868 32.1964 83.3655 32.1964 83.5119 32.2805L85.9593 33.692C86.0309 33.7331 86.0904 33.7925 86.1317 33.8641C86.173 33.9357 86.1946 34.0169 86.1944 34.0995V36.3263C86.1942 36.4089 86.2158 36.4901 86.2571 36.5617C86.2984 36.6333 86.3579 36.6927 86.4296 36.7338C86.5763 36.8184 86.7539 36.8188 86.9003 36.7338L91.5888 34.0058C91.8798 33.8367 92.0596 33.527 92.0596 33.1907V31.0112C92.0596 30.846 92.0161 30.6837 91.9335 30.5405C91.8509 30.3974 91.7321 30.2786 91.589 30.1959L83.8112 25.6796C83.6682 25.5968 83.5058 25.5535 83.3406 25.5541L83.3404 25.5536ZM59.9439 32.2969C59.9877 32.2967 60.0308 32.3074 60.0695 32.3281L62.7508 33.8805C62.8236 33.9226 62.8764 34.0004 62.8764 34.0843V37.1891C62.8764 37.2735 62.8241 37.3511 62.7508 37.3929L60.0695 38.9453C59.9964 38.9867 59.9073 38.9867 59.8341 38.9453L57.1527 37.3929C57.0797 37.3508 57.0271 37.273 57.0271 37.1891V34.0838C57.0271 33.9997 57.0799 33.9226 57.1527 33.8801L59.8341 32.3278C59.8707 32.3067 59.9029 32.2967 59.9439 32.2967V32.2965V32.2969Z" fill="#404137"/>
<path d="M36.5322 25.5064C36.3669 25.5061 36.2045 25.5494 36.0614 25.6319L28.2365 30.1325C27.944 30.3012 27.7661 30.6261 27.7661 30.9635V39.9958C27.7657 40.1611 27.809 40.3236 27.8916 40.4667C27.9742 40.6099 28.0932 40.7286 28.2365 40.811L36.0614 45.3272C36.2043 45.4102 36.3666 45.4539 36.5318 45.4539C36.6971 45.4539 36.8594 45.4102 37.0023 45.3272L44.8272 40.811C44.9704 40.7285 45.0893 40.6097 45.172 40.4665C45.2546 40.3233 45.298 40.1609 45.2977 39.9956V30.9633C45.2977 30.6255 45.1199 30.3007 44.827 30.1323L37.002 25.6317C36.8591 25.5488 36.6966 25.5054 36.5313 25.5061L36.5322 25.5064ZM83.3252 33.5667C83.294 33.5667 83.2593 33.5667 83.231 33.5819L81.7257 34.4602C81.6976 34.4758 81.6741 34.4985 81.6576 34.526C81.6411 34.5535 81.6321 34.5849 81.6315 34.6169V36.342C81.6315 36.4069 81.6692 36.4662 81.7257 36.4989L83.231 37.3613C83.2569 37.3773 83.2867 37.3858 83.3171 37.3858C83.3475 37.3858 83.3773 37.3773 83.4032 37.3613L84.9085 36.4989C84.9643 36.4669 85.0027 36.4069 85.0027 36.342V34.6169C85.0027 34.552 84.9646 34.4927 84.9085 34.46L83.4032 33.5817C83.3753 33.5651 83.3561 33.5664 83.3247 33.5664L83.3252 33.5667Z" fill="#83CD29"/>
</svg>
