<svg width="114" height="29" viewBox="0 0 114 29" fill="none" xmlns="http://www.w3.org/2000/svg">
<path d="M28.91 13.25H32.784V19.334C32.8187 19.802 32.9833 20.2093 33.278 20.556C33.59 20.8853 34.0753 21.0673 34.734 21.102C35.1847 21.102 35.6093 21.024 36.008 20.868C36.424 20.712 36.788 20.4953 37.1 20.218C37.412 19.9407 37.6633 19.6113 37.854 19.23C38.0447 18.8487 38.14 18.4327 38.14 17.982V15.304H36.424V13.25H40.298V21.18H41.91V23H38.14V21.674L38.218 20.504C37.8713 21.336 37.308 22.0033 36.528 22.506C35.7653 22.9913 34.916 23.234 33.98 23.234C32.9573 23.234 32.1513 22.9653 31.562 22.428C30.9727 21.8907 30.6607 21.1887 30.626 20.322V15.304H28.91V13.25ZM52.2661 22.48V21.96C52.2488 22.012 52.1621 22.1073 52.0061 22.246C51.8501 22.3847 51.6248 22.532 51.3301 22.688C51.0528 22.8267 50.7148 22.948 50.3161 23.052C49.9175 23.1733 49.4668 23.234 48.9641 23.234C48.2361 23.234 47.5515 23.104 46.9101 22.844C46.2688 22.5667 45.7141 22.194 45.2461 21.726C44.7781 21.258 44.4055 20.712 44.1281 20.088C43.8681 19.464 43.7381 18.8053 43.7381 18.112C43.7381 17.4187 43.8681 16.7687 44.1281 16.162C44.4055 15.538 44.7781 14.992 45.2461 14.524C45.7141 14.056 46.2688 13.692 46.9101 13.432C47.5515 13.1547 48.2361 13.016 48.9641 13.016C49.3975 13.016 49.8048 13.0767 50.1861 13.198C50.5848 13.3193 50.9315 13.458 51.2261 13.614C51.5208 13.77 51.7548 13.926 51.9281 14.082C52.1188 14.238 52.2315 14.342 52.2661 14.394C52.2315 14.2553 52.1881 14.1253 52.1361 14.004C52.0841 13.8653 52.0408 13.7267 52.0061 13.588V5.554H50.2901V3.5H54.1641V20.946H56.1401V23H52.2661V22.48ZM45.9221 18.112C45.9221 18.9613 46.1995 19.6807 46.7541 20.27C47.3261 20.842 48.0628 21.128 48.9641 21.128C49.8655 21.128 50.5935 20.842 51.1481 20.27C51.7201 19.6807 52.0061 18.9613 52.0061 18.112C52.0061 17.2453 51.7201 16.5347 51.1481 15.98C50.5935 15.408 49.8655 15.122 48.9641 15.122C48.0628 15.122 47.3261 15.408 46.7541 15.98C46.1995 16.5347 45.9221 17.2453 45.9221 18.112ZM63.1569 15.122C62.2729 15.122 61.5535 15.3907 60.9989 15.928C60.4442 16.448 60.1495 17.1067 60.1149 17.904C60.9295 17.6093 61.7355 17.3147 62.5329 17.02C63.3475 16.708 64.1622 16.4047 64.9769 16.11C64.7342 15.8153 64.4569 15.5813 64.1449 15.408C63.8502 15.2173 63.5209 15.122 63.1569 15.122ZM67.7329 17.332C66.5542 17.7653 65.3755 18.1987 64.1969 18.632C63.0355 19.0653 61.8655 19.4987 60.6869 19.932C60.9469 20.296 61.2849 20.5907 61.7009 20.816C62.1342 21.024 62.6195 21.128 63.1569 21.128C63.9542 21.128 64.6129 20.8507 65.1329 20.296L66.4589 21.856C66.0255 22.2893 65.5315 22.6273 64.9769 22.87C64.4222 23.1127 63.8155 23.234 63.1569 23.234C62.4289 23.234 61.7442 23.104 61.1029 22.844C60.4789 22.5667 59.9329 22.194 59.4649 21.726C58.9969 21.258 58.6242 20.7207 58.3469 20.114C58.0869 19.49 57.9569 18.8227 57.9569 18.112C57.9569 17.4187 58.0869 16.76 58.3469 16.136C58.6242 15.512 58.9969 14.9747 59.4649 14.524C59.9329 14.056 60.4789 13.692 61.1029 13.432C61.7442 13.1547 62.4289 13.016 63.1569 13.016C63.6942 13.016 64.2055 13.1287 64.6909 13.354C65.1935 13.562 65.6355 13.8567 66.0169 14.238C66.4155 14.6193 66.7622 15.0787 67.0569 15.616C67.3515 16.136 67.5769 16.708 67.7329 17.332ZM84.69 20.946H86.666V16.916C86.6313 16.448 86.458 16.0493 86.146 15.72C85.8513 15.3733 85.3746 15.1827 84.716 15.148C84.2653 15.148 83.832 15.226 83.416 15.382C83.0173 15.538 82.662 15.7547 82.35 16.032C82.038 16.3093 81.7866 16.6387 81.596 17.02C81.4053 17.4013 81.31 17.8173 81.31 18.268V20.946H82.948V23H77.176V20.946H79.152V16.916C79.1173 16.448 78.944 16.0493 78.632 15.72C78.3373 15.3733 77.8606 15.1827 77.202 15.148C76.7513 15.148 76.318 15.226 75.902 15.382C75.5033 15.538 75.148 15.7547 74.836 16.032C74.524 16.3093 74.2726 16.6387 74.082 17.02C73.8913 17.4013 73.796 17.8173 73.796 18.268V20.946H75.434V23H69.662V20.946H71.638V15.304H69.922V13.25H73.536V13.484C73.5706 13.9 73.5966 14.2813 73.614 14.628C73.6486 14.9573 73.6833 15.33 73.718 15.746C74.082 14.914 74.628 14.264 75.356 13.796C76.1013 13.3107 76.968 13.0507 77.956 13.016C78.9093 13.016 79.672 13.2587 80.244 13.744C80.8333 14.212 81.18 14.836 81.284 15.616C81.6653 14.8187 82.22 14.1947 82.948 13.744C83.676 13.2933 84.5166 13.0507 85.47 13.016C86.4926 13.016 87.2986 13.2847 87.888 13.822C88.4773 14.3593 88.7893 15.0613 88.824 15.928V20.946H90.462V23H84.69V20.946ZM92.285 20.946H94.105V15.304H92.285V13.25H96.263V20.946H98.057V23H92.285V20.946ZM93.871 9.48C93.871 9.08133 94.0097 8.752 94.287 8.492C94.5643 8.232 94.8763 8.102 95.223 8.102C95.5523 8.102 95.8557 8.232 96.133 8.492C96.4103 8.752 96.549 9.08133 96.549 9.48C96.549 9.87867 96.4103 10.208 96.133 10.468C95.8557 10.7107 95.5523 10.832 95.223 10.832C94.8763 10.832 94.5643 10.7107 94.287 10.468C94.0097 10.208 93.871 9.87867 93.871 9.48ZM108.327 22.116C107.876 22.4627 107.373 22.74 106.819 22.948C106.281 23.1387 105.701 23.234 105.077 23.234C104.349 23.234 103.664 23.104 103.023 22.844C102.399 22.5667 101.853 22.194 101.385 21.726C100.917 21.258 100.544 20.7207 100.267 20.114C100.007 19.49 99.8768 18.8227 99.8768 18.112C99.8768 17.4187 100.007 16.76 100.267 16.136C100.544 15.512 100.917 14.9747 101.385 14.524C101.853 14.056 102.399 13.692 103.023 13.432C103.664 13.1547 104.349 13.016 105.077 13.016C105.718 13.016 106.316 13.12 106.871 13.328C107.425 13.5187 107.928 13.7873 108.379 14.134V17.15H106.455V15.408C106.021 15.2173 105.562 15.122 105.077 15.122C104.175 15.122 103.439 15.408 102.867 15.98C102.312 16.5347 102.035 17.2453 102.035 18.112C102.035 18.9613 102.312 19.6807 102.867 20.27C103.439 20.842 104.175 21.128 105.077 21.128C105.839 21.128 106.489 20.9113 107.027 20.478L108.327 22.116Z" fill="black"/>
<path fill-rule="evenodd" clip-rule="evenodd" d="M0 3H24V27H0V3ZM12.1987 7.8H15.5106H17.3281H20.64V9.46034H19.0079V17.762C19.0079 18.5607 18.8737 19.2682 18.6052 19.8847C18.3367 20.5012 17.9623 21.0197 17.4818 21.44C17.0014 21.8463 16.4361 22.1546 15.7861 22.3647C15.1361 22.5749 14.4296 22.68 13.6665 22.68C13.0813 22.68 12.5294 22.6182 12.0106 22.4946C11.4919 22.6182 10.9399 22.68 10.3547 22.68C9.59162 22.68 8.88509 22.5749 8.23508 22.3647C7.58507 22.1546 7.01985 21.8463 6.53941 21.44C6.05897 21.0197 5.6845 20.5012 5.41602 19.8847C5.13341 19.2682 4.9921 18.5607 4.9921 17.762V9.46034H3.36001V7.8H6.67188H8.48943H11.8013V9.46034H10.0632V17.699C10.0632 18.2314 10.1551 18.7078 10.3388 19.1281C10.5225 19.5345 10.7768 19.8777 11.1018 20.158C11.3608 20.3914 11.6638 20.581 12.0109 20.7269C12.36 20.581 12.6699 20.3914 12.9406 20.158C13.2515 19.8777 13.4987 19.5345 13.6824 19.1281C13.852 18.7078 13.9368 18.2314 13.9368 17.699V9.46034H12.1987V7.8ZM14.6672 20.9239C14.8186 20.8932 14.9655 20.855 15.1079 20.8095C15.5459 20.6554 15.9274 20.4382 16.2525 20.158C16.5633 19.8777 16.8106 19.5345 16.9943 19.1281C17.1639 18.7078 17.2487 18.2314 17.2487 17.699V9.46034H15.6961V17.762C15.6961 18.5607 15.5618 19.2682 15.2933 19.8847C15.1259 20.2693 14.9172 20.6157 14.6672 20.9239ZM9.35402 20.9239C9.10408 20.6157 8.89536 20.2693 8.72789 19.8847C8.44528 19.2682 8.30397 18.5607 8.30397 17.762V9.46034H6.75137V17.699C6.75137 18.2314 6.84321 18.7078 7.02691 19.1281C7.21061 19.5345 7.46496 19.8777 7.78997 20.158C8.10084 20.4382 8.4753 20.6554 8.91335 20.8095C9.05576 20.855 9.20265 20.8932 9.35402 20.9239Z" fill="black"/>
</svg>
